<svg width="57" height="57" viewBox="0 0 57 57" fill="none" xmlns="http://www.w3.org/2000/svg">
<path d="M33.9623 46.1082C34.4753 44.7568 34.7746 43.2155 34.7746 41.5648C34.7746 36.5085 32.0694 32.3973 28.7444 32.3973C25.3909 32.3973 22.6882 36.5085 22.6882 41.5648C22.6882 43.187 22.959 44.7283 23.472 46.0536C12.4116 47.2173 4.62395 51.8415 1.46045 53.922C6.78757 46.2412 12.3593 37.2376 17.6841 26.8802C19.0093 24.3105 20.2538 21.7692 21.4152 19.2826C21.8736 19.5795 22.3343 19.9048 22.8473 20.2302C25.2271 21.717 27.4453 22.5292 29.0675 22.9615C27.8776 22.0685 26.5808 20.9878 25.2556 19.6626C24.2557 18.6627 23.3627 17.6605 22.6051 16.6867C24.8494 11.7657 26.7969 7.03233 28.4998 2.54358C31.3379 10.0605 34.8815 18.2542 39.3156 26.8802C42.1822 32.4235 45.1034 37.5891 48.0223 42.3486C47.1839 41.8902 46.2648 41.4556 45.2911 41.078C43.6143 40.4296 42.0468 40.0235 40.6931 39.7812C42.5313 40.7003 44.6688 41.9187 46.9132 43.5408C48.3738 44.6238 49.6706 45.7045 50.7797 46.759C50.8058 46.7851 50.8058 46.7851 50.8343 46.8136C52.3757 49.3287 53.9717 51.6538 55.5392 53.9243C52.4303 51.8676 44.7781 47.3242 33.9623 46.1082Z" fill="white"/>
</svg>
