<svg width="53" height="53" viewBox="0 0 53 53" fill="none" xmlns="http://www.w3.org/2000/svg">
<path d="M4.74512 46.28C4.74512 46.1392 25.2137 7.28334 25.8999 6.12158L26.374 5.31897L26.8917 6.22556C27.1765 6.72417 29.2633 10.6883 31.5292 15.0348C33.795 19.3813 38.364 28.1201 41.6825 34.4545C46.3392 43.343 47.652 46.012 47.4349 46.1493C47.2802 46.2472 45.4155 46.3287 43.2911 46.3305L39.4287 46.3336L38.2896 45.181C35.4319 42.2893 30.4372 39.6676 24.8553 38.1295L22.3545 37.4404L25.4804 37.284C28.417 37.137 31.7297 37.2361 33.5408 37.5251C34.1462 37.6217 34.3372 37.5821 34.3372 37.3601C34.3372 36.8115 26.6745 22.8335 26.3738 22.8335C26.1547 22.8335 24.6077 25.5243 18.6027 36.3512C15.6528 41.6699 13.2229 46.0413 13.203 46.0654C13.1141 46.1731 4.74512 46.3854 4.74512 46.2799V46.28Z" fill="white"/>
</svg>
