<svg width="58" height="64" viewBox="0 0 58 64" fill="none" xmlns="http://www.w3.org/2000/svg">
<path d="M37.4126 7.09924C41.8512 12.1967 47.6044 19.3864 51.3853 26.3209C54.1519 31.3954 55.7998 36.2244 55.2212 39.9635C54.9356 41.8086 54.1078 43.3895 52.5845 44.6266C51.0505 45.8723 48.7774 46.7963 45.561 47.2467C36.4266 48.5312 25.9319 48.8974 17.7114 48.941C13.6032 48.9628 10.0668 48.9036 7.55811 48.8395C6.30408 48.8074 5.30691 48.774 4.62354 48.7487C4.54312 48.7457 4.46665 48.7416 4.39502 48.7389C4.58545 48.4098 4.83662 47.9775 5.13525 47.4625C5.83043 46.2637 6.78568 44.6178 7.85303 42.7906C8.02899 42.786 8.30128 42.7935 8.67139 42.818C9.47272 42.8711 10.6563 42.9894 12.1226 43.1461C15.0478 43.4587 19.0747 43.9221 23.3237 44.3102C27.5723 44.6982 32.0582 45.0126 35.9106 45.026C37.8366 45.0327 39.6137 44.9647 41.1284 44.7906C42.6204 44.6192 43.8979 44.3404 44.8169 43.9059C46.7164 43.119 48.0571 41.9446 48.9116 40.4655C49.7624 38.993 50.1105 37.2543 50.0923 35.3649C50.0558 31.6003 48.5621 27.1318 46.4878 22.6803C43.8877 17.1005 40.3276 11.4514 37.4126 7.09924Z" fill="white" stroke="#0C0A10"/>
<path d="M32.8071 1.25842C31.1283 1.49932 0.334473 41.0234 0.334473 41.0234C0.334473 41.0234 2.55453 41.6804 7.60215 42.4411C9.23683 41.1156 32.2328 0.716696 32.8955 1.293C32.8837 1.27675 32.8646 1.27076 32.8379 1.27456L32.8071 1.25842Z" fill="white"/>
<path d="M32.7725 1.96069C35.9384 6.35668 43.2982 16.6477 47.0137 26.0232C48.9465 30.9005 49.8412 35.4057 48.7773 38.6824C48.2529 40.2972 47.249 41.6259 45.6211 42.573C43.9811 43.5271 41.6788 44.1105 38.542 44.1658C34.0443 44.2459 26.3108 43.6837 19.6797 43.0984C16.3692 42.8062 13.3412 42.5091 11.1406 42.2849C10.0404 42.1728 9.14636 42.0792 8.52832 42.0134C8.46085 42.0062 8.39676 41.9984 8.33594 41.9919C8.50392 41.706 8.724 41.3337 8.98828 40.8845C9.65283 39.7551 10.6031 38.1412 11.7471 36.2058C14.0351 32.3347 17.0969 27.1755 20.1914 22.0222C23.2864 16.8682 26.413 11.7223 28.8311 7.87769C30.0406 5.95465 31.0699 4.3618 31.8281 3.25757C32.208 2.70429 32.5138 2.28226 32.7373 2.00464C32.7494 1.98961 32.7611 1.97458 32.7725 1.96069Z" fill="white" stroke="#0C0A10"/>
</svg>
