<svg width="336" height="77" viewBox="0 0 336 77" fill="none" xmlns="http://www.w3.org/2000/svg">
<path d="M80.0455 62V15.4545H98.4091C101.924 15.4545 104.924 16.0833 107.409 17.3409C109.909 18.5833 111.811 20.3485 113.114 22.6364C114.432 24.9091 115.091 27.5833 115.091 30.6591C115.091 33.75 114.424 36.4091 113.091 38.6364C111.758 40.8485 109.826 42.5455 107.295 43.7273C104.78 44.9091 101.735 45.5 98.1591 45.5H85.8636V37.5909H96.5682C98.447 37.5909 100.008 37.3333 101.25 36.8182C102.492 36.303 103.417 35.5303 104.023 34.5C104.644 33.4697 104.955 32.1894 104.955 30.6591C104.955 29.1136 104.644 27.8106 104.023 26.75C103.417 25.6894 102.485 24.8864 101.227 24.3409C99.9848 23.7803 98.4167 23.5 96.5227 23.5H89.8864V62H80.0455ZM105.182 40.8182L116.75 62H105.886L94.5682 40.8182H105.182ZM121.864 62V27.0909H131.545V62H121.864ZM126.727 22.5909C125.288 22.5909 124.053 22.1136 123.023 21.1591C122.008 20.1894 121.5 19.0303 121.5 17.6818C121.5 16.3485 122.008 15.2045 123.023 14.25C124.053 13.2803 125.288 12.7955 126.727 12.7955C128.167 12.7955 129.394 13.2803 130.409 14.25C131.439 15.2045 131.955 16.3485 131.955 17.6818C131.955 19.0303 131.439 20.1894 130.409 21.1591C129.394 22.1136 128.167 22.5909 126.727 22.5909ZM155.074 62.6818C151.498 62.6818 148.422 61.9242 145.847 60.4091C143.286 58.8788 141.316 56.7576 139.938 54.0455C138.574 51.3333 137.892 48.2121 137.892 44.6818C137.892 41.1061 138.581 37.9697 139.96 35.2727C141.354 32.5606 143.331 30.447 145.892 28.9318C148.453 27.4015 151.498 26.6364 155.028 26.6364C158.074 26.6364 160.741 27.1894 163.028 28.2955C165.316 29.4015 167.127 30.9545 168.46 32.9545C169.794 34.9545 170.528 37.303 170.665 40H161.528C161.271 38.2576 160.589 36.8561 159.483 35.7955C158.392 34.7197 156.96 34.1818 155.188 34.1818C153.688 34.1818 152.377 34.5909 151.256 35.4091C150.15 36.2121 149.286 37.3864 148.665 38.9318C148.044 40.4773 147.733 42.3485 147.733 44.5455C147.733 46.7727 148.036 48.6667 148.642 50.2273C149.263 51.7879 150.134 52.9773 151.256 53.7955C152.377 54.6136 153.688 55.0227 155.188 55.0227C156.294 55.0227 157.286 54.7955 158.165 54.3409C159.059 53.8864 159.794 53.2273 160.369 52.3636C160.96 51.4848 161.347 50.4318 161.528 49.2045H170.665C170.513 51.8712 169.786 54.2197 168.483 56.25C167.195 58.2652 165.415 59.8409 163.142 60.9773C160.869 62.1136 158.18 62.6818 155.074 62.6818ZM192.773 62.6818C189.182 62.6818 186.091 61.9545 183.5 60.5C180.924 59.0303 178.939 56.9545 177.545 54.2727C176.152 51.5758 175.455 48.3864 175.455 44.7045C175.455 41.1136 176.152 37.9621 177.545 35.25C178.939 32.5379 180.902 30.4242 183.432 28.9091C185.977 27.3939 188.962 26.6364 192.386 26.6364C194.689 26.6364 196.833 27.0076 198.818 27.75C200.818 28.4773 202.561 29.5758 204.045 31.0455C205.545 32.5152 206.712 34.3636 207.545 36.5909C208.379 38.803 208.795 41.3939 208.795 44.3636V47.0227H179.318V41.0227H199.682C199.682 39.6288 199.379 38.3939 198.773 37.3182C198.167 36.2424 197.326 35.4015 196.25 34.7955C195.189 34.1742 193.955 33.8636 192.545 33.8636C191.076 33.8636 189.773 34.2045 188.636 34.8864C187.515 35.553 186.636 36.4545 186 37.5909C185.364 38.7121 185.038 39.9621 185.023 41.3409V47.0455C185.023 48.7727 185.341 50.2652 185.977 51.5227C186.629 52.7803 187.545 53.75 188.727 54.4318C189.909 55.1136 191.311 55.4545 192.932 55.4545C194.008 55.4545 194.992 55.303 195.886 55C196.78 54.697 197.545 54.2424 198.182 53.6364C198.818 53.0303 199.303 52.2879 199.636 51.4091L208.591 52C208.136 54.1515 207.205 56.0303 205.795 57.6364C204.402 59.2273 202.598 60.4697 200.386 61.3636C198.189 62.2424 195.652 62.6818 192.773 62.6818Z" fill="white"/>
<path d="M227.977 62.5682C225.326 62.5682 222.924 61.8864 220.773 60.5227C218.636 59.1439 216.939 57.1212 215.682 54.4545C214.439 51.7727 213.818 48.4848 213.818 44.5909C213.818 40.5909 214.462 37.2652 215.75 34.6136C217.038 31.947 218.75 29.9545 220.886 28.6364C223.038 27.303 225.394 26.6364 227.955 26.6364C229.909 26.6364 231.538 26.9697 232.841 27.6364C234.159 28.2879 235.22 29.1061 236.023 30.0909C236.841 31.0606 237.462 32.0152 237.886 32.9545H238.182V15.4545H247.841V62H238.295V56.4091H237.886C237.432 57.3788 236.788 58.3409 235.955 59.2955C235.136 60.2348 234.068 61.0152 232.75 61.6364C231.447 62.2576 229.856 62.5682 227.977 62.5682ZM231.045 54.8636C232.606 54.8636 233.924 54.4394 235 53.5909C236.091 52.7273 236.924 51.5227 237.5 49.9773C238.091 48.4318 238.386 46.6212 238.386 44.5455C238.386 42.4697 238.098 40.6667 237.523 39.1364C236.947 37.6061 236.114 36.4242 235.023 35.5909C233.932 34.7576 232.606 34.3409 231.045 34.3409C229.455 34.3409 228.114 34.7727 227.023 35.6364C225.932 36.5 225.106 37.697 224.545 39.2273C223.985 40.7576 223.705 42.5303 223.705 44.5455C223.705 46.5758 223.985 48.3712 224.545 49.9318C225.121 51.4773 225.947 52.6894 227.023 53.5682C228.114 54.4318 229.455 54.8636 231.045 54.8636ZM271.574 62.6818C268.044 62.6818 264.991 61.9318 262.415 60.4318C259.854 58.9167 257.877 56.8106 256.483 54.1136C255.089 51.4015 254.392 48.2576 254.392 44.6818C254.392 41.0758 255.089 37.9242 256.483 35.2273C257.877 32.5152 259.854 30.4091 262.415 28.9091C264.991 27.3939 268.044 26.6364 271.574 26.6364C275.104 26.6364 278.15 27.3939 280.71 28.9091C283.286 30.4091 285.271 32.5152 286.665 35.2273C288.059 37.9242 288.756 41.0758 288.756 44.6818C288.756 48.2576 288.059 51.4015 286.665 54.1136C285.271 56.8106 283.286 58.9167 280.71 60.4318C278.15 61.9318 275.104 62.6818 271.574 62.6818ZM271.619 55.1818C273.225 55.1818 274.566 54.7273 275.642 53.8182C276.718 52.8939 277.528 51.6364 278.074 50.0455C278.634 48.4545 278.915 46.6439 278.915 44.6136C278.915 42.5833 278.634 40.7727 278.074 39.1818C277.528 37.5909 276.718 36.3333 275.642 35.4091C274.566 34.4848 273.225 34.0227 271.619 34.0227C269.998 34.0227 268.634 34.4848 267.528 35.4091C266.438 36.3333 265.612 37.5909 265.051 39.1818C264.506 40.7727 264.233 42.5833 264.233 44.6136C264.233 46.6439 264.506 48.4545 265.051 50.0455C265.612 51.6364 266.438 52.8939 267.528 53.8182C268.634 54.7273 269.998 55.1818 271.619 55.1818ZM313.619 27.0909V34.3636H292.597V27.0909H313.619ZM297.369 18.7273H307.051V51.2727C307.051 52.1667 307.188 52.8636 307.46 53.3636C307.733 53.8485 308.112 54.1894 308.597 54.3864C309.097 54.5833 309.672 54.6818 310.324 54.6818C310.778 54.6818 311.233 54.6439 311.688 54.5682C312.142 54.4773 312.491 54.4091 312.733 54.3636L314.256 61.5682C313.771 61.7197 313.089 61.8939 312.21 62.0909C311.331 62.303 310.263 62.4318 309.006 62.4773C306.672 62.5682 304.627 62.2576 302.869 61.5455C301.127 60.8333 299.771 59.7273 298.801 58.2273C297.831 56.7273 297.354 54.8333 297.369 52.5455V18.7273ZM325.585 62.5909C324.085 62.5909 322.797 62.0606 321.722 61C320.661 59.9242 320.131 58.6364 320.131 57.1364C320.131 55.6515 320.661 54.3788 321.722 53.3182C322.797 52.2576 324.085 51.7273 325.585 51.7273C327.04 51.7273 328.313 52.2576 329.403 53.3182C330.494 54.3788 331.04 55.6515 331.04 57.1364C331.04 58.1364 330.782 59.053 330.267 59.8864C329.767 60.7045 329.108 61.3636 328.29 61.8636C327.472 62.3485 326.57 62.5909 325.585 62.5909Z" fill="#FE9DC3"/>
<rect y="59" width="58" height="3" fill="url(#paint0_linear_95_12)"/>
<rect y="46" width="8" height="11" fill="white"/>
<rect x="10" y="37" width="8" height="20" fill="white"/>
<rect x="20" y="32" width="8" height="25" fill="white"/>
<rect x="30" y="28" width="8" height="29" fill="#FE9DC3"/>
<rect x="40" y="21" width="8" height="36" fill="#FE9DC3"/>
<rect x="50" y="15" width="8" height="42" fill="#FE9DC3"/>
<defs>
<linearGradient id="paint0_linear_95_12" x1="0" y1="60.5" x2="58" y2="60.5" gradientUnits="userSpaceOnUse">
<stop stop-color="white"/>
<stop offset="0.528846" stop-color="#FE9DC3"/>
</linearGradient>
</defs>
</svg>
