<svg width="48" height="48" viewBox="0 0 48 48" fill="none" xmlns="http://www.w3.org/2000/svg">
<g clip-path="url(#clip0_15_7310)">
<path d="M24 46.125C36.2193 46.125 46.125 36.2193 46.125 24C46.125 11.7807 36.2193 1.875 24 1.875C11.7807 1.875 1.875 11.7807 1.875 24C1.875 36.2193 11.7807 46.125 24 46.125Z" fill="#0C0A10"/>
<path d="M24 0C10.7452 0 0 10.7452 0 24C0 37.2548 10.7452 48 24 48C37.2548 48 48 37.2548 48 24C48 10.7452 37.2548 0 24 0ZM24 3.75C35.1838 3.75 44.25 12.8162 44.25 24C44.25 35.1838 35.1838 44.25 24 44.25C12.8162 44.25 3.75 35.1838 3.75 24C3.75 12.8162 12.8162 3.75 24 3.75Z" fill="white"/>
<path d="M14.7188 11.7188V28.6875C14.7188 30.7073 16.2993 32.3093 18.31 32.3432L18.375 32.3438H29.625C31.6448 32.3438 33.2468 30.7632 33.2807 28.7525L33.2812 28.6875V19.3125C33.2812 18.3065 32.506 17.5313 31.5 17.5313C30.5114 17.5313 29.7456 18.28 29.7194 19.2607L29.7188 19.3125V28.7812H25.7812V19.3125C25.7812 18.3065 25.006 17.5313 24 17.5313C23.0114 17.5313 22.2456 18.28 22.2194 19.2607L22.2188 19.3125V28.7812H18.2813V19.3125C18.2813 16.1763 20.8638 13.5938 24 13.5938C25.3195 13.5938 26.5751 14.0653 27.596 14.9056L27.6703 14.9678L27.75 15.0367L27.8314 14.9663C28.8158 14.1299 30.0271 13.6418 31.3072 13.5971L31.4058 13.5946L31.5 13.5938C34.6048 13.5938 37.167 16.1249 37.218 19.2186L37.2188 19.3125V28.6875C37.2188 32.8175 33.8648 36.2127 29.7499 36.2802L29.625 36.2812H18.375C14.245 36.2812 10.8498 32.9273 10.7823 28.8124L10.7812 28.6875V11.7188H14.7188Z" fill="#F8F8F8"/>
</g>
<defs>
<clipPath id="clip0_15_7310">
<rect width="48" height="48" fill="white"/>
</clipPath>
</defs>
</svg>
