<svg width="50" height="50" viewBox="0 0 50 50" fill="none" xmlns="http://www.w3.org/2000/svg">
<path fill-rule="evenodd" clip-rule="evenodd" d="M19.8172 17.098L8.01758 37.6672L5.26289 32.9668L8.44258 27.4578L2.12734 27.4414L0.78125 25.0926L2.15586 22.6902L11.1453 22.7188L14.3758 17.1125L19.8172 17.098ZM20.7227 33.541L44.3199 33.5422L41.6531 38.2938L35.3231 38.2762L38.4664 43.7898L37.1188 46.1375L34.3648 46.1406L29.8941 38.2902L23.4555 38.277L20.7227 33.541ZM34.457 24.5277L22.6594 3.95742L28.0813 3.90625L31.2309 9.43281L34.4027 3.93594L37.0969 3.93672L38.4766 6.33633L33.957 14.1582L37.1652 19.7777L34.457 24.5277Z" fill="white"/>
<path fill-rule="evenodd" clip-rule="evenodd" d="M15.5592 25.5715L27.3568 46.1418L21.935 46.193L18.7854 40.6664L15.6135 46.1633L12.9193 46.1625L11.5396 43.7629L16.0592 35.941L12.851 30.3215L15.5592 25.5715ZM29.2623 16.5063L5.66504 16.5051L8.33223 11.7539L14.6619 11.7715L11.5186 6.25781L12.8662 3.91016L15.6205 3.90625L20.0908 11.7566L26.5299 11.7699L29.2627 16.5059L29.2623 16.5063ZM30.183 32.9969L41.9826 12.4273L44.7373 17.1281L41.5572 22.6367L47.8729 22.6535L49.2189 25.0023L47.8443 27.4047L38.8549 27.3762L35.6244 32.9824L30.183 32.9969Z" fill="white"/>
</svg>
