<svg width="50" height="49" viewBox="0 0 50 49" fill="none" xmlns="http://www.w3.org/2000/svg">
<g clip-path="url(#clip0_15_7315)">
<path d="M25.0024 49.0026C38.8096 49.0026 50.0024 38.0335 50.0024 24.5026C50.0024 10.9716 38.8096 0.00256348 25.0024 0.00256348C11.1953 0.00256348 0.00244141 10.9716 0.00244141 24.5026C0.00244141 38.0335 11.1953 49.0026 25.0024 49.0026Z" fill="white"/>
<path d="M13.7447 37.5554H36.2605C37.3387 37.5554 38.2161 38.4153 38.2161 39.4719V39.6273C38.2161 40.684 37.3387 41.5438 36.2605 41.5438H13.7447C12.6664 41.5438 11.7891 40.684 11.7891 39.6273V39.4719C11.7891 38.4101 12.6612 37.5554 13.7447 37.5554Z" fill="black"/>
<path d="M28.3324 18.4423C27.0639 21.084 24.9498 23.2077 21.9899 24.2436L24.5269 30.7182C25.0026 31.9096 25.4255 33.1527 25.0555 34.2922C24.6855 35.4318 22.9942 35.7943 21.7785 34.5512C19.4529 32.1167 11.6305 16.7848 11.0491 15.6453C10.4677 14.5058 9.8335 13.5734 9.8335 12.4339C9.88635 10.7246 12.5819 8.96347 13.9033 8.08292C15.2246 7.20237 17.8145 6.01104 20.0872 5.95924C22.3599 5.90745 23.3113 6.42542 24.6327 7.25417C26.6411 8.5491 28.0682 10.5692 28.5967 12.9C29.1253 15.2309 28.9667 17.0438 28.3324 18.3387M22.3599 15.5417C21.8842 13.936 20.88 12.3821 19.5587 11.3461C19.2944 11.1389 18.9773 10.88 18.6073 10.7764C16.176 9.99941 17.2331 13.9878 17.6031 15.0237C17.973 16.0597 18.9773 18.2351 20.0872 19.3229C20.3515 19.5819 20.6157 19.7891 20.9329 19.8409C21.25 19.8926 21.8842 19.5819 22.1485 19.1675C22.4128 18.7531 22.4656 18.4423 22.4656 18.028C22.5872 17.1992 22.5502 16.3549 22.3599 15.5417Z" fill="black"/>
<path d="M33.0364 34.344C32.9307 34.8102 32.6664 35.2246 32.2436 35.4836C31.8208 35.7426 30.8166 35.7426 30.2352 35.2764C29.6538 34.8102 29.5481 34.0333 29.7066 33.4117C29.8652 32.7901 30.3937 32.1168 31.1337 31.9096C32.6664 31.4434 33.3535 33.1009 33.0364 34.344Z" fill="black"/>
<path d="M32.0852 29.6305C31.1338 29.2679 31.451 24.2954 32.3495 18.2352C32.6138 16.5777 33.0366 15.7489 33.5123 15.3345C33.988 14.9202 35.415 14.713 36.2607 14.8684C37.2332 15.0082 38.137 15.4433 38.8506 16.1115C39.4848 16.6813 39.5377 17.3028 39.3262 18.0798C39.1148 18.8567 38.3749 20.5142 37.7935 21.7056L36.3136 24.4508C33.4594 29.4233 32.878 29.9413 32.0852 29.6305Z" fill="black"/>
</g>
<defs>
<clipPath id="clip0_15_7315">
<rect width="50" height="49" fill="white"/>
</clipPath>
</defs>
</svg>
