<svg width="51" height="51" viewBox="0 0 51 51" fill="none" xmlns="http://www.w3.org/2000/svg">
<g clip-path="url(#clip0_15_7270)">
<path d="M17.4513 24.9301C17.4513 20.9903 19.3009 17.483 22.1733 15.225L17.7768 8.18811C14.0923 10.8344 11.3197 14.6646 10.0117 19.1231C12.0594 20.4411 13.4173 22.7439 13.4173 25.3612C13.4173 27.8857 12.1622 30.1113 10.2356 31.4509C11.6419 35.6742 14.3824 39.2895 17.9572 41.7986L22.046 34.5264C19.2444 32.2692 17.4513 28.8088 17.4513 24.9301Z" fill="white"/>
<path d="M11.3392 25.3611C11.3392 28.3052 8.94824 30.6937 6.00487 30.6937C3.06006 30.6937 0.670898 28.3053 0.670898 25.3611C0.670898 22.4185 3.06006 20.0302 6.00487 20.0302C8.94824 20.0302 11.3392 22.4185 11.3392 25.3611Z" fill="white"/>
<path d="M41.2917 38.2561C42.5322 38.2561 43.7001 38.5596 44.7263 39.0984C47.9226 35.7298 49.988 31.2849 50.3296 26.3616L42.0455 26.2013C41.4077 32.4143 36.1588 37.2547 29.7791 37.2547C28.0133 37.2547 26.3281 36.8832 24.8074 36.2115L20.6895 43.416C23.4347 44.7668 26.5165 45.5257 29.779 45.5257C31.187 45.5257 32.5677 45.3832 33.8983 45.1117C34.1821 41.2799 37.3833 38.2561 41.2917 38.2561Z" fill="white"/>
<path d="M46.6227 45.6691C46.6227 48.6125 44.2367 51 41.2917 51C38.3467 51 35.959 48.6125 35.959 45.6691C35.959 42.7233 38.3467 40.3365 41.2917 40.3365C44.2367 40.3365 46.6227 42.7233 46.6227 45.6691Z" fill="white"/>
<path d="M45.2935 11.3852C44.0866 12.2399 42.6095 12.7457 41.0146 12.7457C36.9177 12.7457 33.6006 9.42769 33.6006 5.33331C33.6006 5.11584 33.6103 4.90551 33.6264 4.69445C32.3809 4.456 31.0938 4.33362 29.7792 4.33362C26.4862 4.33362 23.3721 5.10861 20.6123 6.48112L24.7061 13.6905C26.2543 12.993 27.9715 12.6006 29.7792 12.6006C36.1024 12.6006 41.3142 17.3628 42.0263 23.4962L50.3103 23.2433C49.9445 18.7204 48.1128 14.6121 45.2935 11.3852Z" fill="white"/>
<path d="M46.344 5.33346C46.344 8.27838 43.9628 10.666 41.0147 10.666C38.0698 10.666 35.6821 8.27838 35.6821 5.33346C35.682 2.38833 38.0697 0 41.0146 0C43.9627 0 46.344 2.38833 46.344 5.33346Z" fill="white"/>
</g>
<defs>
<clipPath id="clip0_15_7270">
<rect width="51" height="51" fill="white"/>
</clipPath>
</defs>
</svg>
